<svg xmlns="http://www.w3.org/2000/svg" xmlns:xlink="http://www.w3.org/1999/xlink" width="500px" height="500px" viewBox="0 0 500 500.3939812044778">
    <g id="d62b01d2-e5ff-41c0-8c31-8dab68f68f3f">
<g style="">
		<g id="d62b01d2-e5ff-41c0-8c31-8dab68f68f3f-child-0">
<path style="stroke: rgb(193,193,193); stroke-width: 0; stroke-dasharray: none; stroke-linecap: butt; stroke-dashoffset: 0; stroke-linejoin: miter; stroke-miterlimit: 4; fill: rgb(30,50,20); fill-rule: nonzero; opacity: 1;" vector-effect="non-scaling-stroke" transform="matrix(1.374328 0 0 1.374328 249.999977 250.196975) matrix(1 0 0 1 0 0)  translate(-820.761884, -348.479652)" d="M683.76814,243.51252l26.87,-5.51l32.61,8.95v137.79c0,0 6.43,1.14 6.43,4.13v5.97h-16.31c0,0 -16.53,-1.61 -23.19,-17.68v-132.73l-19.06,4.36v57.87l-12.17,4.13c11.02,5.97 12.17,13.55 12.17,23.2v50.75c0,0 6.43,1.14 6.43,4.13v5.97h-16.07c0,0 -16.54,-1.61 -23.2,-17.91v-130.44c0,0 0.46,-0.69 -5.97,-0.69v-11.71h8.73zM795.85425,266.36552l35.1,-7.2l42.6,11.7v28.5l-43.2,13.5v-45.3l-24.9,5.7v75.6l-15.9,5.4c14.4,7.8 15.9,17.7 15.9,30.3v66h24.9v-48.6l43.2,13.2v25.8c-8.7,21 -30.3,23.1 -30.3,23.1h-50.4c0,0 -21.6,-2.1 -30.3,-23.4v-170.4c0,0 0.6,-0.9 -7.8,-0.9v-15.3h11.4zM881.87375,232.89378l17.18028,9.47783l20.30412,-5.54489l16.94298,6.22614l22.50374,-6.26711l24.46606,8.68953c0.45023,45.47121 0.55326,91.18058 0.82509,136.42892c0,0 5.0639,0.82297 5.08247,3.77583l0.03714,5.90571l-12.38937,0.76079c0,0 -12.56231,-0.86581 -17.71519,-16.61966l-0.62571,-132.51942l-14.51767,4.43605l0.51656,136.41315c0,0 4.88997,0.91612 4.90754,3.90613l0.05269,5.97894l-12.43362,0.5506c0,0 -12.57625,-1.32578 -17.68509,-17.46808l-0.35365,-133.71962l-14.36871,4.39168l0.08472,58.28558l-9.20281,4.08589c8.35102,6.08536 9.23878,13.72365 9.25554,23.43812l0.01467,5.08854l0.06238,46.02783c0,0 4.90505,1.19724 4.905,4.20486l0.01495,6.01532l-12.24272,-0.16269c0,0 -12.57651,-1.97324 -17.64904,-18.52816l-0.0314,-130.82073c0,0 0.34477,-0.68988 -4.50808,-0.70708v-11.73z" stroke-linecap="round"/>
</g>
</g>
</g>

  </svg>