<svg width="500px" height="130px" viewBox="0 0 500 130.166913635161" xmlns="http://www.w3.org/2000/svg" xmlns:xlink="http://www.w3.org/1999/xlink">
    <g transform="matrix(1 0 0 1 0 -188.623134)" id="04a1dcb6-2dec-4d14-bb16-e6b6a3a10bca">

</g>
<g id="fd8b2383-1ab3-4ab3-acdb-a60e4ace831f">
<g style="">
		<g id="b7798351-3ed5-45b5-bb54-fed555bd02fd">
<path style="stroke: rgb(193,193,193); stroke-width: 0; stroke-dasharray: none; stroke-linecap: butt; stroke-dashoffset: 0; stroke-linejoin: miter; stroke-miterlimit: 4; fill: rgb(0,0,0); fill-rule: nonzero; opacity: 1;" d="M20.18,26.8629l9.01,1.56l9.01,-1.56l8.53,2.34l-0.06,12.37l4.92,-1.98l8.59,3.54l0.06,23.13c0,0 1.68,0.3 1.68,1.08v1.56h-4.26c0,0 -4.32,-0.42 -6.07,-4.62v-21.93c-0.84,0 -3.54,2.65 -4.92,4.03v19.88c0,0 1.68,0.3 1.68,1.08v1.56h-4.26c0,0 -4.33,-0.42 -6.07,-4.62l0.06,-35.38c-0.72,0.18 -2.52,0.42 -4.62,0.72v16.22l-3.19,1.08c3.43,1.8 3.19,4.2 3.19,7.39l0.06,11.95c0,0 1.68,0.3 1.68,1.08v1.56h-4.27c-4.26,-0.42 -6,-4.5 -6.06,-4.68v-34.6c-2.05,-0.3 -3.85,-0.54 -4.57,-0.72v8.71l-8.65,-2.64v-5.77zM69.07,39.5929h10.09c0,0 4.33,0.42 6.07,4.63v5.1l-13.58,6.91v9.97h4.99v-8.95l8.59,3.48v3.55c-1.74,4.2 -6.07,4.62 -6.07,4.62h-10.09c-2.58,-0.24 -5.1,-2.22 -6.06,-4.62v-20.06c1.74,-4.21 6.06,-4.63 6.06,-4.63zM76.58,51.5429v-9.25h-4.93v11.78zM110.09,29.3229l7.03,-1.44l8.53,2.34v36.04c0,0 1.68,0.3 1.68,1.08v1.56h-4.26c0,0 -4.33,-0.42 -6.07,-4.62v-34.72l-4.99,1.14v15.14l-3.18,1.08c2.88,1.56 3.18,3.54 3.18,6.06v1.33v11.95c0,0 1.69,0.3 1.69,1.08v1.56h-4.21c0,0 -4.32,-0.42 -6.06,-4.68v-34.12c0,0 0.12,-0.18 -1.57,-0.18v-3.06h2.29zM134.66,39.5929h10.09c0,0 4.32,0.42 6.06,4.63v5.1l-13.57,6.91v9.97h4.98v-8.95l8.59,3.48v3.55c-1.74,4.2 -6.06,4.62 -6.06,4.62h-10.09c-2.59,-0.24 -5.11,-2.22 -6.07,-4.62v-20.06c1.74,-4.21 6.07,-4.63 6.07,-4.63zM142.16,51.5429v-9.25h-4.92v11.78zM154.18,39.5329l7.86,3.3v23.37h4.99v-23.37c0,0 0.12,-0.24 -1.56,-0.24v-3.06h2.28l7.93,3.3v23.37h4.92v-23.37c0,0 0.12,-0.24 -1.56,-0.24v-3.06h2.28l7.93,3.3v21.45c-1.74,4.2 -6.06,4.62 -6.06,4.62h-10.09c0,0 -0.78,-0.06 -1.75,-0.48c-1.02,0.42 -1.74,0.48 -1.74,0.48h-10.09c0,0 -4.32,-0.42 -6.06,-4.62v-21.45c0,0 0.12,-0.24 -1.57,-0.24v-3.06zM214.6,29.3229l7.02,-1.44l8.53,2.34v5.71l-8.65,2.7v-9.07l-4.98,1.14v15.14l-3.18,1.08c2.88,1.56 3.18,3.54 3.18,6.06v1.33v11.89h4.98v-9.73l8.65,2.64v5.17c-1.74,4.2 -6.06,4.62 -6.06,4.62h-10.09c0,0 -4.33,-0.42 -6.07,-4.68v-34.12c0,0 0.12,-0.18 -1.56,-0.18v-3.06h2.28zM254.24,49.2029l-8.59,3.54v-10.39c-0.84,0 -3.6,2.77 -5.05,4.15v19.76c0,0 1.69,0.3 1.69,1.08v1.56h-4.21c0,0 -4.32,-0.42 -6.06,-4.62v-21.45c0,0 0.12,-0.24 -1.57,-0.24v-3.06h2.29l6.42,2.7l6.49,-2.64l8.65,3.54zM261.38,39.5929h10.09c0,0 4.33,0.42 6.07,4.63v5.1l-13.57,6.91v9.97h4.98v-8.95l8.59,3.48v3.55c-1.74,4.2 -6.07,4.62 -6.07,4.62h-10.09c-2.58,-0.24 -5.1,-2.22 -6.06,-4.62v-20.06c1.74,-4.21 6.06,-4.63 6.06,-4.63zM268.89,51.5429v-9.25h-4.92v11.78zM287.99,49.6829c1.44,0 2.82,0.36 3.91,1.02v-8.35c-1.09,0 -6.73,5.29 -7.39,5.95h-1.86v-5.83l9.25,-2.88l8.58,3.54v23.13c0,0 1.69,0.3 1.69,1.08v1.56h-4.21c0,0 -3.06,-0.3 -5.1,-2.88c-1.2,1.5 -3.13,2.76 -6.31,2.76c-5.59,0 -8.11,-4.5 -8.11,-9.13c0,-5.52 2.88,-9.97 9.55,-9.97zM287.39,58.7529c0,3.54 1.32,5.04 2.58,5.04c0.96,0 1.81,-0.9 1.93,-2.4v-4.86c0,-2.16 -0.97,-3.43 -1.99,-3.43c-1.2,0 -2.52,1.75 -2.52,5.65zM306.31,41.8129v-6.84c0,0 0.12,-0.18 -1.5,-0.18v-3.07h2.22l7.93,3.25v6.84h5.1v1.92h-5.1v22.53c0,0 1.68,0.3 1.68,1.08v1.56h-4.2c-2.65,-0.24 -5.11,-2.22 -6.13,-4.62v-20.55h-3.96v-1.92zM332.02,67.3429v1.56h-4.21c0,0 -4.32,-0.42 -6.06,-4.62v-21.45c0,0 0.12,-0.24 -1.57,-0.24v-3.06h2.29l7.86,3.3v23.43c0,0 1.69,0.3 1.69,1.08zM321.08,33.8229v-2.52h2.23l5.88,1.86v7.21l-6.6,-2.7v-3.67c0,0 0.18,-0.18 -1.51,-0.18zM355.32,44.2829v20c-1.74,4.2 -6.07,4.62 -6.07,4.62h-10.09c0,0 -4.32,-0.42 -6.06,-4.62v-20c1.74,-4.27 6.06,-4.69 6.06,-4.69h10.09c0,0 4.33,0.42 6.07,4.69zM346.67,42.2929h-7.57c1.74,0.66 2.65,3.91 2.65,5.77v18.14h4.92zM371.78,39.5929l8.64,3.54v23.13c0,0 1.69,0.3 1.69,1.08v1.56h-4.27c0,0 -4.32,-0.42 -6.06,-4.62v-21.93c-0.84,0 -3.61,2.77 -5.05,4.15v19.76c0,0 1.68,0.3 1.68,1.08v1.56h-4.2c0,0 -4.33,-0.42 -6.07,-4.62v-21.45c0,0 0.12,-0.24 -1.56,-0.24v-3.06h2.28l6.43,2.7zM400.73,26.8629l5.94,2.46l7.03,-1.44l5.88,1.62l7.81,-1.62l8.47,2.34c0.06,12.01 0,24.09 0,36.04c0,0 1.74,0.3 1.74,1.08v1.56h-4.26c0,0 -4.33,-0.42 -6.07,-4.62v-34.72l-5.04,1.14v35.56c0,0 1.68,0.3 1.68,1.08v1.56h-4.27c0,0 -4.32,-0.42 -6.06,-4.62v-34.72l-4.99,1.14v15.14l-3.18,1.08c2.88,1.56 3.18,3.54 3.18,6.06v1.33v11.95c0,0 1.68,0.3 1.68,1.08v1.56h-4.2c0,0 -4.32,-0.42 -6.07,-4.68v-34.12c0,0 0.12,-0.18 -1.56,-0.18v-3.06zM447.81,49.6829c1.44,0 2.83,0.36 3.91,1.02v-8.35c-1.08,0 -6.73,5.29 -7.39,5.95h-1.86v-5.83l9.25,-2.88l8.59,3.54v23.13c0,0 1.68,0.3 1.68,1.08v1.56h-4.21c0,0 -3.06,-0.3 -5.1,-2.88c-1.2,1.5 -3.13,2.76 -6.31,2.76c-5.58,0 -8.11,-4.5 -8.11,-9.13c0,-5.52 2.89,-9.97 9.55,-9.97zM447.21,58.7529c0,3.54 1.32,5.04 2.58,5.04c0.97,0 1.81,-0.9 1.93,-2.4v-4.86c0,-2.16 -0.96,-3.43 -1.99,-3.43c-1.2,0 -2.52,1.75 -2.52,5.65zM478.02,39.5929l8.65,3.54v23.13c0,0 1.68,0.3 1.68,1.08v1.56h-4.26c0,0 -4.33,-0.42 -6.07,-4.62v-21.93c-0.84,0 -3.6,2.77 -5.04,4.15v19.76c0,0 1.68,0.3 1.68,1.08v1.56h-4.2c0,0 -4.33,-0.42 -6.07,-4.62v-21.45c0,0 0.12,-0.24 -1.56,-0.24v-3.06h2.28l6.43,2.7z" stroke-linecap="round"/>
</g>
</g>
</g>
<g transform="matrix(1 0 0 1 0 -188.623134)" id="2679bab2-5b6d-4b05-b40a-1aefd65875ab">

</g>
<g transform="matrix(1 0 0 1 0 -188.623134)" id="301438c9-4c01-4465-98fc-fd220a5a6333">

</g>
<g transform="matrix(1 0 0 1 0 -188.623134)" id="89958506-4f89-4e52-b169-cfb67e53a3e7">

</g>
<g id="9f0525c6-8f2a-48fd-ad51-09f54effc084">
<g style="">
		<g id="090bebe2-66cf-4e63-923c-f28b8c360a5f">
<path style="stroke: rgb(193,193,193); stroke-width: 0; stroke-dasharray: none; stroke-linecap: butt; stroke-dashoffset: 0; stroke-linejoin: miter; stroke-miterlimit: 4; fill: rgb(0,0,0); fill-rule: nonzero; opacity: 1;" d="M78.35,86.20401c0,-0.33 0.17,-0.5 0.5,-0.5h2.11c0.33,0 0.5,0.17 0.5,0.5c0,1.34 0,2.68 -0.01,4.02c-0.01,1.35 -0.02,2.69 -0.02,4.03c0,1.35 0.01,2.69 0.02,4.03c0.01,1.35 0.01,2.69 0.01,4.03c0,0.33 -0.17,0.5 -0.5,0.5h-2.11c-0.33,0 -0.5,-0.17 -0.5,-0.5c0,-1.34 0,-2.68 0.01,-4.03c0.01,-1.34 0.01,-2.68 0.01,-4.03c0,-1.34 0,-2.68 -0.01,-4.03c-0.01,-1.34 -0.01,-2.68 -0.01,-4.02zM102.88,103.30401c-0.05,0 -0.29,-0.2 -0.72,-0.61c-0.43,-0.4 -0.99,-0.93 -1.68,-1.58c-0.69,-0.66 -1.44,-1.38 -2.25,-2.16c-0.81,-0.79 -1.62,-1.57 -2.43,-2.36c-0.8,-0.79 -1.54,-1.51 -2.22,-2.16c-0.68,-0.65 -1.23,-1.18 -1.65,-1.58c-0.42,-0.4 -0.64,-0.6 -0.67,-0.6c-0.04,0 -0.06,0.03 -0.07,0.09c-0.01,0.06 -0.01,0.1 -0.01,0.13c0,0.74 0,1.48 0,2.22c0.01,0.73 0.01,1.47 0.01,2.21c0,0.62 0,1.24 0,1.85c0,0.61 0,1.23 -0.01,1.86c0,0.26 0.01,0.55 0.02,0.86c0.01,0.31 0,0.59 -0.03,0.85c-0.02,0.17 -0.06,0.29 -0.13,0.37c-0.06,0.08 -0.18,0.12 -0.37,0.12h-2.16c-0.34,0 -0.51,-0.17 -0.51,-0.51c0,-0.47 0.01,-0.93 0.04,-1.39c0.02,-0.47 0.03,-0.93 0.04,-1.4c0.01,-0.93 0.02,-1.85 0.03,-2.78c0.01,-0.93 0.02,-1.85 0.02,-2.78c0,-0.98 -0.01,-1.96 -0.02,-2.93c-0.01,-0.98 -0.02,-1.96 -0.04,-2.93c-0.01,-0.47 -0.03,-0.93 -0.05,-1.39c-0.02,-0.47 -0.03,-0.93 -0.03,-1.39c0,-0.05 0.03,-0.08 0.08,-0.08c0.05,0 0.09,0.02 0.12,0.05c1.93,1.8 3.83,3.64 5.69,5.52c1.85,1.89 3.73,3.75 5.64,5.58c0.01,0.01 0.04,0.03 0.07,0.06c0.03,0.03 0.07,0.05 0.1,0.05c0.05,0 0.07,-0.03 0.08,-0.09c0,-0.07 0,-0.11 0,-0.13c0,-0.76 0,-1.52 0,-2.27c-0.01,-0.75 -0.01,-1.51 -0.01,-2.26c0,-0.65 0,-1.3 0,-1.95c0,-0.65 0,-1.29 0.01,-1.93c0,-0.27 0,-0.55 -0.01,-0.83c-0.01,-0.29 0,-0.56 0.02,-0.83c0.02,-0.17 0.06,-0.3 0.13,-0.38c0.06,-0.08 0.18,-0.12 0.37,-0.12h2.1c0.33,0 0.5,0.17 0.5,0.51c0,0.42 -0.01,0.84 -0.02,1.27c-0.01,0.42 -0.03,0.85 -0.04,1.28c-0.01,0.89 -0.02,1.78 -0.03,2.68c-0.01,0.9 -0.01,1.8 -0.01,2.69c0,3.05 0.05,6.09 0.14,9.13zM128.01,86.59401c0,0.04 -0.03,0.19 -0.08,0.45c-0.06,0.26 -0.12,0.52 -0.18,0.79c-0.06,0.26 -0.1,0.42 -0.13,0.48c-0.03,0.11 -0.08,0.21 -0.13,0.3c-0.06,0.09 -0.16,0.13 -0.3,0.13c-0.09,0 -0.18,-0.02 -0.29,-0.07c-0.31,-0.1 -0.62,-0.19 -0.93,-0.26c-0.31,-0.07 -0.64,-0.1 -0.97,-0.1c-0.41,0 -0.81,0.06 -1.22,0.17c-0.4,0.11 -0.73,0.31 -1,0.58c-0.27,0.28 -0.41,0.66 -0.41,1.15c0,0.61 0.16,1.12 0.47,1.51c0.31,0.39 0.7,0.73 1.19,1.01c0.48,0.28 0.99,0.56 1.54,0.83c0.55,0.27 1.06,0.6 1.54,0.97c0.49,0.37 0.88,0.83 1.19,1.4c0.31,0.56 0.47,1.28 0.47,2.16c0,1.2 -0.29,2.16 -0.86,2.88c-0.57,0.71 -1.31,1.23 -2.24,1.55c-0.93,0.31 -1.92,0.47 -2.99,0.47c-0.32,0 -0.7,-0.02 -1.13,-0.05c-0.43,-0.04 -0.87,-0.1 -1.3,-0.17c-0.43,-0.08 -0.79,-0.18 -1.08,-0.29c-0.09,-0.04 -0.17,-0.09 -0.24,-0.15c-0.07,-0.05 -0.1,-0.14 -0.1,-0.26c0,-0.05 0.03,-0.22 0.1,-0.49c0.07,-0.27 0.14,-0.55 0.21,-0.82c0.07,-0.28 0.12,-0.45 0.13,-0.51c0.04,-0.11 0.09,-0.21 0.14,-0.28c0.05,-0.07 0.15,-0.11 0.29,-0.11c0.08,0 0.16,0.01 0.23,0.03c0.4,0.11 0.81,0.21 1.22,0.3c0.41,0.08 0.82,0.12 1.23,0.12c0.51,0 1.01,-0.07 1.49,-0.22c0.47,-0.14 0.86,-0.38 1.17,-0.72c0.31,-0.35 0.46,-0.82 0.46,-1.41c0,-0.67 -0.16,-1.22 -0.48,-1.63c-0.31,-0.41 -0.72,-0.75 -1.22,-1.03c-0.49,-0.28 -1.02,-0.55 -1.58,-0.81c-0.56,-0.25 -1.09,-0.55 -1.58,-0.9c-0.5,-0.34 -0.91,-0.78 -1.22,-1.33c-0.32,-0.54 -0.48,-1.25 -0.48,-2.12c0,-1.08 0.26,-1.95 0.77,-2.62c0.51,-0.66 1.19,-1.15 2.03,-1.46c0.83,-0.31 1.73,-0.46 2.7,-0.46c0.48,0 1.03,0.04 1.66,0.13c0.63,0.09 1.16,0.24 1.59,0.43c0.1,0.04 0.18,0.09 0.24,0.15c0.05,0.06 0.08,0.15 0.08,0.28zM145.7,98.96401c0.11,0 0.2,0.04 0.26,0.12c0.07,0.08 0.12,0.16 0.17,0.25c0.05,0.08 0.14,0.27 0.29,0.57c0.15,0.29 0.29,0.59 0.42,0.88c0.13,0.29 0.19,0.46 0.19,0.53c0,0.12 -0.07,0.24 -0.2,0.35c-0.58,0.44 -1.3,0.77 -2.17,1c-0.86,0.22 -1.65,0.33 -2.38,0.33c-1.71,0 -3.17,-0.39 -4.4,-1.16c-1.22,-0.77 -2.16,-1.82 -2.82,-3.13c-0.65,-1.32 -0.98,-2.8 -0.98,-4.45c0,-1.18 0.17,-2.3 0.52,-3.35c0.35,-1.05 0.85,-1.98 1.52,-2.79c0.67,-0.81 1.49,-1.45 2.46,-1.91c0.97,-0.46 2.09,-0.69 3.34,-0.69c0.74,0 1.53,0.1 2.37,0.31c0.83,0.2 1.56,0.5 2.18,0.91c0.17,0.11 0.25,0.23 0.25,0.37c0,0.04 -0.04,0.16 -0.12,0.35c-0.08,0.2 -0.17,0.42 -0.28,0.67c-0.1,0.25 -0.2,0.47 -0.29,0.68c-0.09,0.2 -0.16,0.33 -0.19,0.4c-0.04,0.08 -0.09,0.16 -0.16,0.25c-0.06,0.09 -0.15,0.13 -0.26,0.13c-0.07,0 -0.14,-0.02 -0.2,-0.06c-0.06,-0.03 -0.12,-0.07 -0.19,-0.1c-0.46,-0.29 -0.93,-0.53 -1.41,-0.7c-0.47,-0.18 -0.99,-0.27 -1.56,-0.27c-0.75,0 -1.43,0.17 -2.02,0.51c-0.59,0.34 -1.1,0.79 -1.51,1.35c-0.41,0.56 -0.72,1.18 -0.93,1.87c-0.21,0.68 -0.32,1.36 -0.32,2.05c0,1.03 0.18,1.99 0.54,2.87c0.37,0.89 0.92,1.6 1.66,2.14c0.74,0.54 1.67,0.81 2.79,0.81c0.57,0 1.1,-0.08 1.58,-0.23c0.49,-0.15 0.97,-0.38 1.44,-0.68c0.06,-0.05 0.12,-0.09 0.19,-0.12c0.07,-0.04 0.14,-0.06 0.22,-0.06zM153.1,86.20401c0,-0.33 0.17,-0.5 0.5,-0.5h2.11c0.34,0 0.51,0.17 0.51,0.5c0,1.34 -0.01,2.68 -0.02,4.02c-0.01,1.35 -0.01,2.69 -0.01,4.03c0,1.35 0,2.69 0.01,4.03c0.01,1.35 0.02,2.69 0.02,4.03c0,0.33 -0.17,0.5 -0.51,0.5h-2.11c-0.33,0 -0.5,-0.17 -0.5,-0.5c0,-1.34 0,-2.68 0.01,-4.03c0.01,-1.34 0.02,-2.68 0.02,-4.03c0,-1.34 -0.01,-2.68 -0.02,-4.03c-0.01,-1.34 -0.01,-2.68 -0.01,-4.02zM162.78,86.21401c0,-0.34 0.17,-0.51 0.51,-0.51h9.71c0.33,0 0.5,0.17 0.5,0.51c0,0.31 0,0.64 0,0.97c0,0.33 -0.01,0.65 -0.02,0.97c-0.03,0.33 -0.19,0.49 -0.5,0.49h-6.94c-0.09,0 -0.14,0.05 -0.14,0.14c0,0.66 0,1.32 0,1.98c0.01,0.65 0.01,1.31 0.01,1.97c0,0.09 0.05,0.14 0.15,0.14h6c0.33,0 0.5,0.17 0.5,0.5v1.68c0,0.33 -0.17,0.5 -0.5,0.5h-6c-0.1,0 -0.15,0.05 -0.15,0.14c0,0.67 0,1.34 -0.01,2.01c0,0.67 0,1.35 0,2.02c0,0.1 0.05,0.15 0.14,0.15h7.23c0.31,0 0.47,0.16 0.5,0.49c0.02,0.31 0.03,0.64 0.03,0.97c0.01,0.33 0.01,0.65 0.01,0.97c0,0.34 -0.17,0.51 -0.5,0.51h-10.04c-0.33,0 -0.5,-0.17 -0.5,-0.51c0,-0.45 0.01,-0.89 0.02,-1.34c0.01,-0.44 0.02,-0.89 0.03,-1.34c0.03,-1.87 0.04,-3.73 0.04,-5.6c0,-1.31 -0.01,-2.61 -0.04,-3.91c-0.03,-1.3 -0.04,-2.6 -0.04,-3.9zM194.64,103.30401c-0.05,0 -0.3,-0.2 -0.73,-0.61c-0.43,-0.4 -0.99,-0.93 -1.68,-1.58c-0.68,-0.66 -1.43,-1.38 -2.25,-2.16c-0.81,-0.79 -1.62,-1.57 -2.42,-2.36c-0.81,-0.79 -1.55,-1.51 -2.23,-2.16c-0.68,-0.65 -1.23,-1.18 -1.65,-1.58c-0.42,-0.4 -0.64,-0.6 -0.67,-0.6c-0.04,0 -0.06,0.03 -0.07,0.09c-0.01,0.06 -0.01,0.1 -0.01,0.13c0,0.74 0,1.48 0.01,2.22c0,0.73 0,1.47 0,2.21c0,0.62 0,1.24 0,1.85c0,0.61 0,1.23 -0.01,1.86c0,0.26 0.01,0.55 0.02,0.86c0.01,0.31 0,0.59 -0.03,0.85c-0.02,0.17 -0.06,0.29 -0.13,0.37c-0.06,0.08 -0.18,0.12 -0.37,0.12h-2.16c-0.33,0 -0.5,-0.17 -0.5,-0.51c0,-0.47 0.01,-0.93 0.03,-1.39c0.02,-0.47 0.03,-0.93 0.04,-1.4c0.01,-0.93 0.02,-1.85 0.03,-2.78c0.01,-0.93 0.02,-1.85 0.02,-2.78c0,-0.98 -0.01,-1.96 -0.02,-2.93c-0.01,-0.98 -0.02,-1.96 -0.04,-2.93c-0.01,-0.47 -0.03,-0.93 -0.05,-1.39c-0.02,-0.47 -0.03,-0.93 -0.03,-1.39c0,-0.05 0.03,-0.08 0.08,-0.08c0.05,0 0.09,0.02 0.12,0.05c1.93,1.8 3.83,3.64 5.69,5.52c1.85,1.89 3.73,3.75 5.64,5.58c0.01,0.01 0.04,0.03 0.07,0.06c0.03,0.03 0.07,0.05 0.1,0.05c0.05,0 0.07,-0.03 0.08,-0.09c0,-0.07 0,-0.11 0,-0.13c0,-0.76 0,-1.52 0,-2.27c-0.01,-0.75 -0.01,-1.51 -0.01,-2.26c0,-0.65 0,-1.3 0,-1.95c0,-0.65 0,-1.29 0.01,-1.93c0,-0.27 0,-0.55 -0.01,-0.83c-0.01,-0.29 0,-0.56 0.02,-0.83c0.02,-0.17 0.06,-0.3 0.13,-0.38c0.06,-0.08 0.19,-0.12 0.38,-0.12h2.09c0.34,0 0.51,0.17 0.51,0.51c0,0.42 -0.01,0.84 -0.03,1.27c-0.01,0.42 -0.03,0.85 -0.04,1.28c-0.01,0.89 -0.02,1.78 -0.03,2.68c-0.01,0.9 -0.01,1.8 -0.01,2.69c0,3.05 0.05,6.09 0.14,9.13zM200.47,86.21401c0,-0.34 0.17,-0.51 0.5,-0.51h10.35c0.34,0 0.51,0.17 0.51,0.51c0,0.31 0,0.64 0,0.97c0.01,0.33 0,0.65 -0.03,0.97c-0.03,0.33 -0.19,0.49 -0.5,0.49h-3.54c-0.1,0 -0.15,0.05 -0.15,0.14c0,0.87 0,1.73 0,2.59c-0.01,0.85 -0.01,1.71 -0.01,2.58c0,1.39 0,2.79 0.01,4.18c0.01,1.39 0.02,2.79 0.02,4.18c0,0.33 -0.17,0.5 -0.5,0.5h-2.12c-0.33,0 -0.5,-0.17 -0.5,-0.5c0,-1.43 0.01,-2.87 0.02,-4.3c0.01,-1.43 0.02,-2.86 0.02,-4.28l-0.01,-4.95c0,-0.09 -0.05,-0.14 -0.16,-0.14h-3.38c-0.31,0 -0.48,-0.16 -0.5,-0.49c-0.03,-0.32 -0.04,-0.64 -0.03,-0.97c0,-0.33 0,-0.66 0,-0.97zM217.66,86.20401c0,-0.33 0.17,-0.5 0.5,-0.5h2.12c0.33,0 0.5,0.17 0.5,0.5c0,1.34 -0.01,2.68 -0.02,4.02c-0.01,1.35 -0.01,2.69 -0.01,4.03c0,1.35 0,2.69 0.01,4.03c0.01,1.35 0.02,2.69 0.02,4.03c0,0.33 -0.17,0.5 -0.5,0.5h-2.12c-0.33,0 -0.5,-0.17 -0.5,-0.5c0,-1.34 0.01,-2.68 0.02,-4.03c0.01,-1.34 0.01,-2.68 0.01,-4.03c0,-1.34 0,-2.68 -0.01,-4.03c-0.01,-1.34 -0.02,-2.68 -0.02,-4.02zM227.35,86.21401c0,-0.34 0.17,-0.51 0.5,-0.51h10.04c0.33,0 0.5,0.17 0.5,0.51c0,0.31 0,0.63 0.01,0.97c0.01,0.34 0,0.66 -0.03,0.97c-0.03,0.33 -0.19,0.49 -0.5,0.49h-7.27c-0.09,0 -0.14,0.05 -0.14,0.14c0,0.68 0,1.36 0,2.04c0.01,0.68 0.01,1.36 0.01,2.03c0,0.1 0.05,0.15 0.15,0.15h6.19c0.33,0 0.5,0.17 0.5,0.5v1.91c0,0.33 -0.17,0.5 -0.5,0.5h-6.19c-0.1,0 -0.15,0.05 -0.15,0.15c0,0.71 0,1.41 0,2.12c0,0.7 0,1.41 -0.01,2.12c-0.01,0.33 -0.01,0.67 -0.01,1c0.01,0.34 0,0.68 -0.02,1.01c-0.02,0.33 -0.19,0.5 -0.5,0.5h-2.1c-0.33,0 -0.5,-0.17 -0.5,-0.51c0,-0.45 0.01,-0.89 0.02,-1.34c0.01,-0.44 0.02,-0.89 0.03,-1.34c0.03,-1.87 0.04,-3.73 0.04,-5.6c0,-1.31 -0.01,-2.61 -0.04,-3.91c-0.02,-1.3 -0.03,-2.6 -0.03,-3.9zM244.24,86.20401c0,-0.33 0.17,-0.5 0.5,-0.5h2.11c0.34,0 0.51,0.17 0.51,0.5c0,1.34 -0.01,2.68 -0.02,4.02c-0.01,1.35 -0.01,2.69 -0.01,4.03c0,1.35 0,2.69 0.01,4.03c0.01,1.35 0.02,2.69 0.02,4.03c0,0.33 -0.17,0.5 -0.51,0.5h-2.11c-0.33,0 -0.5,-0.17 -0.5,-0.5c0,-1.34 0,-2.68 0.01,-4.03c0.01,-1.34 0.02,-2.68 0.02,-4.03c0,-1.34 -0.01,-2.68 -0.02,-4.03c-0.01,-1.34 -0.01,-2.68 -0.01,-4.02zM265,98.96401c0.11,0 0.2,0.04 0.26,0.12c0.06,0.08 0.11,0.16 0.16,0.25c0.05,0.08 0.15,0.27 0.3,0.57c0.15,0.29 0.28,0.59 0.41,0.88c0.13,0.29 0.2,0.46 0.2,0.53c0,0.12 -0.07,0.24 -0.21,0.35c-0.58,0.44 -1.3,0.77 -2.16,1c-0.86,0.22 -1.65,0.33 -2.38,0.33c-1.71,0 -3.17,-0.39 -4.4,-1.16c-1.23,-0.77 -2.17,-1.82 -2.82,-3.13c-0.65,-1.32 -0.98,-2.8 -0.98,-4.45c0,-1.18 0.17,-2.3 0.51,-3.35c0.35,-1.05 0.85,-1.98 1.52,-2.79c0.67,-0.81 1.49,-1.45 2.46,-1.91c0.97,-0.46 2.09,-0.69 3.34,-0.69c0.74,0 1.53,0.1 2.37,0.31c0.84,0.2 1.57,0.5 2.19,0.91c0.16,0.11 0.24,0.23 0.24,0.37c0,0.04 -0.04,0.16 -0.12,0.35c-0.07,0.2 -0.16,0.42 -0.27,0.67c-0.11,0.25 -0.21,0.47 -0.3,0.68c-0.09,0.2 -0.16,0.33 -0.19,0.4c-0.04,0.08 -0.09,0.16 -0.15,0.25c-0.06,0.09 -0.15,0.13 -0.26,0.13c-0.07,0 -0.14,-0.02 -0.21,-0.06c-0.06,-0.03 -0.12,-0.07 -0.18,-0.1c-0.47,-0.29 -0.94,-0.53 -1.41,-0.7c-0.48,-0.18 -1,-0.27 -1.56,-0.27c-0.76,0 -1.44,0.17 -2.03,0.51c-0.59,0.34 -1.09,0.79 -1.5,1.35c-0.41,0.56 -0.73,1.18 -0.94,1.87c-0.21,0.68 -0.32,1.36 -0.32,2.05c0,1.03 0.18,1.99 0.55,2.87c0.36,0.89 0.91,1.6 1.65,2.14c0.74,0.54 1.67,0.81 2.8,0.81c0.57,0 1.09,-0.08 1.58,-0.23c0.48,-0.15 0.96,-0.38 1.43,-0.68c0.07,-0.05 0.13,-0.09 0.2,-0.12c0.06,-0.04 0.13,-0.06 0.22,-0.06zM287.41,85.70401c1.21,0 2.3,0.2 3.28,0.59c0.97,0.39 1.75,1 2.32,1.83c0.57,0.83 0.86,1.89 0.86,3.2c0,1.05 -0.2,2 -0.61,2.85c-0.41,0.85 -1.06,1.55 -1.95,2.12c-0.06,0.03 -0.09,0.07 -0.09,0.12c0,0.03 0.11,0.23 0.33,0.58c0.21,0.35 0.48,0.78 0.81,1.29c0.33,0.51 0.67,1.03 1.02,1.56c0.35,0.53 0.65,1 0.91,1.41c0.26,0.41 0.43,0.67 0.5,0.78c0.04,0.07 0.08,0.14 0.12,0.21c0.04,0.08 0.06,0.16 0.06,0.25c0,0.15 -0.08,0.24 -0.23,0.27c-0.15,0.03 -0.27,0.05 -0.37,0.05h-2.43c-0.16,0 -0.3,-0.07 -0.41,-0.22c-0.25,-0.33 -0.49,-0.67 -0.71,-1.03c-0.22,-0.36 -0.44,-0.71 -0.67,-1.06c-0.36,-0.55 -0.72,-1.1 -1.09,-1.65c-0.37,-0.55 -0.72,-1.11 -1.07,-1.67c-0.03,-0.05 -0.08,-0.08 -0.14,-0.08h-2.18c-0.1,0 -0.15,0.05 -0.15,0.14c0,0.57 0,1.13 0,1.69c-0.01,0.57 -0.01,1.13 -0.02,1.69c0,0.24 0.01,0.53 0.02,0.87c0.01,0.33 0,0.61 -0.03,0.83c-0.03,0.17 -0.07,0.29 -0.13,0.37c-0.06,0.08 -0.19,0.12 -0.38,0.12h-2.11c-0.33,0 -0.5,-0.17 -0.5,-0.51c0,-0.44 0.01,-0.88 0.03,-1.33c0.01,-0.44 0.02,-0.88 0.03,-1.33c0.03,-1.86 0.04,-3.72 0.04,-5.58c0,-1.77 -0.01,-3.54 -0.04,-5.32c-0.01,-0.43 -0.02,-0.85 -0.03,-1.27c-0.01,-0.42 -0.02,-0.84 -0.02,-1.26c0,-0.34 0.17,-0.51 0.5,-0.51zM287.99,94.17401c0.81,0 1.46,-0.25 1.96,-0.76c0.51,-0.51 0.76,-1.17 0.76,-1.98c0,-0.83 -0.24,-1.51 -0.71,-2.02c-0.47,-0.51 -1.13,-0.77 -1.98,-0.77h-2.51c0.01,0.92 0.01,1.84 0.01,2.76c0,0.93 0,1.85 0,2.77zM300.97,86.21401c0,-0.34 0.17,-0.51 0.5,-0.51h9.71c0.33,0 0.5,0.17 0.5,0.51c0,0.31 0,0.64 0,0.97c0,0.33 -0.01,0.65 -0.02,0.97c-0.03,0.33 -0.19,0.49 -0.5,0.49h-6.93c-0.1,0 -0.15,0.05 -0.15,0.14c0,0.66 0,1.32 0,1.98c0.01,0.65 0.01,1.31 0.01,1.97c0,0.09 0.05,0.14 0.15,0.14h6c0.33,0 0.5,0.17 0.5,0.5v1.68c0,0.33 -0.17,0.5 -0.5,0.5h-6c-0.1,0 -0.15,0.05 -0.15,0.14c0,0.67 0,1.34 -0.01,2.01c0,0.67 0,1.35 0,2.02c0,0.1 0.05,0.15 0.15,0.15h7.22c0.31,0 0.48,0.16 0.5,0.49c0.02,0.31 0.03,0.64 0.03,0.97c0.01,0.33 0.01,0.65 0.01,0.97c0,0.34 -0.17,0.51 -0.5,0.51h-10.04c-0.33,0 -0.5,-0.17 -0.5,-0.51c0,-0.45 0.01,-0.89 0.02,-1.34c0.01,-0.44 0.02,-0.89 0.03,-1.34c0.03,-1.87 0.04,-3.73 0.04,-5.6c0,-1.31 -0.01,-2.61 -0.04,-3.91c-0.02,-1.3 -0.03,-2.6 -0.03,-3.9zM326.53,86.59401c0,0.04 -0.03,0.19 -0.09,0.45c-0.05,0.26 -0.11,0.52 -0.17,0.79c-0.06,0.26 -0.1,0.42 -0.13,0.48c-0.03,0.11 -0.08,0.21 -0.13,0.3c-0.06,0.09 -0.16,0.13 -0.3,0.13c-0.09,0 -0.18,-0.02 -0.29,-0.07c-0.31,-0.1 -0.62,-0.19 -0.93,-0.26c-0.31,-0.07 -0.64,-0.1 -0.98,-0.1c-0.41,0 -0.81,0.06 -1.21,0.17c-0.4,0.11 -0.74,0.31 -1.01,0.58c-0.27,0.28 -0.4,0.66 -0.4,1.15c0,0.61 0.15,1.12 0.46,1.51c0.31,0.39 0.71,0.73 1.19,1.01c0.49,0.28 1,0.56 1.55,0.83c0.55,0.27 1.06,0.6 1.54,0.97c0.49,0.37 0.88,0.83 1.19,1.4c0.31,0.56 0.47,1.28 0.47,2.16c0,1.2 -0.29,2.16 -0.86,2.88c-0.57,0.71 -1.31,1.23 -2.24,1.55c-0.93,0.31 -1.93,0.47 -2.99,0.47c-0.32,0 -0.7,-0.02 -1.13,-0.05c-0.44,-0.04 -0.87,-0.1 -1.3,-0.17c-0.43,-0.08 -0.79,-0.18 -1.08,-0.29c-0.09,-0.04 -0.17,-0.09 -0.24,-0.15c-0.07,-0.05 -0.1,-0.14 -0.1,-0.26c0,-0.05 0.03,-0.22 0.1,-0.49c0.07,-0.27 0.14,-0.55 0.21,-0.82c0.07,-0.28 0.12,-0.45 0.13,-0.51c0.04,-0.11 0.09,-0.21 0.14,-0.28c0.05,-0.07 0.15,-0.11 0.29,-0.11c0.08,0 0.16,0.01 0.23,0.03c0.4,0.11 0.8,0.21 1.21,0.3c0.41,0.08 0.83,0.12 1.24,0.12c0.51,0 1.01,-0.07 1.49,-0.22c0.47,-0.14 0.86,-0.38 1.17,-0.72c0.31,-0.35 0.46,-0.82 0.46,-1.41c0,-0.67 -0.16,-1.22 -0.48,-1.63c-0.32,-0.41 -0.73,-0.75 -1.22,-1.03c-0.5,-0.28 -1.03,-0.55 -1.58,-0.81c-0.56,-0.25 -1.09,-0.55 -1.58,-0.9c-0.5,-0.34 -0.91,-0.78 -1.22,-1.33c-0.32,-0.54 -0.48,-1.25 -0.48,-2.12c0,-1.08 0.26,-1.95 0.77,-2.62c0.51,-0.66 1.19,-1.15 2.03,-1.46c0.83,-0.31 1.73,-0.46 2.69,-0.46c0.48,0 1.03,0.04 1.66,0.13c0.63,0.09 1.16,0.24 1.6,0.43c0.1,0.04 0.18,0.09 0.23,0.15c0.06,0.06 0.09,0.15 0.09,0.28zM333.15,86.21401c0,-0.34 0.17,-0.51 0.5,-0.51h9.72c0.33,0 0.5,0.17 0.5,0.51c0,0.31 0,0.64 0,0.97c0,0.33 -0.01,0.65 -0.03,0.97c-0.02,0.33 -0.19,0.49 -0.5,0.49h-6.93c-0.1,0 -0.15,0.05 -0.15,0.14c0,0.66 0,1.32 0.01,1.98c0,0.65 0,1.31 0,1.97c0,0.09 0.05,0.14 0.15,0.14h6.01c0.33,0 0.5,0.17 0.5,0.5v1.68c0,0.33 -0.17,0.5 -0.5,0.5h-6.01c-0.1,0 -0.15,0.05 -0.15,0.14c0,0.67 0,1.34 0,2.01c-0.01,0.67 -0.01,1.35 -0.01,2.02c0,0.1 0.05,0.15 0.15,0.15h7.22c0.31,0 0.48,0.16 0.5,0.49c0.02,0.31 0.03,0.64 0.04,0.97c0,0.33 0,0.65 0,0.97c0,0.34 -0.17,0.51 -0.5,0.51h-10.03c-0.33,0 -0.5,-0.17 -0.5,-0.51c0,-0.45 0,-0.89 0.01,-1.34c0.01,-0.44 0.03,-0.89 0.04,-1.34c0.02,-1.87 0.03,-3.73 0.03,-5.6c0,-1.31 -0.01,-2.61 -0.03,-3.91c-0.03,-1.3 -0.04,-2.6 -0.04,-3.9zM349.78,102.81401c-0.11,0 -0.24,-0.02 -0.37,-0.05c-0.13,-0.04 -0.19,-0.14 -0.19,-0.29c0,-0.07 0.01,-0.13 0.03,-0.2c0.03,-0.06 0.05,-0.12 0.08,-0.18c0.71,-1.55 1.42,-3.09 2.13,-4.64c0.7,-1.55 1.39,-3.1 2.08,-4.66c0.56,-1.29 1.12,-2.58 1.67,-3.87c0.55,-1.29 1.12,-2.56 1.71,-3.83c0.02,-0.05 0.06,-0.08 0.12,-0.08c0.06,0 0.1,0.03 0.12,0.08c0.59,1.27 1.16,2.54 1.71,3.83c0.55,1.29 1.11,2.58 1.67,3.87c0.69,1.56 1.38,3.11 2.08,4.66c0.71,1.55 1.42,3.09 2.14,4.64c0.02,0.06 0.04,0.12 0.07,0.18c0.02,0.07 0.03,0.13 0.03,0.2c0,0.15 -0.06,0.25 -0.19,0.29c-0.13,0.03 -0.26,0.05 -0.37,0.05h-2.46c-0.21,0 -0.36,-0.1 -0.47,-0.31c-0.06,-0.13 -0.12,-0.26 -0.18,-0.41c-0.05,-0.15 -0.11,-0.29 -0.17,-0.42c-0.18,-0.41 -0.35,-0.82 -0.52,-1.24c-0.17,-0.43 -0.34,-0.84 -0.53,-1.25c-0.03,-0.06 -0.07,-0.09 -0.13,-0.09h-6.05c-0.06,0 -0.1,0.03 -0.13,0.09c-0.19,0.41 -0.38,0.82 -0.56,1.25c-0.17,0.42 -0.35,0.84 -0.54,1.26c-0.06,0.13 -0.12,0.26 -0.18,0.41c-0.06,0.15 -0.13,0.29 -0.2,0.42c-0.11,0.19 -0.26,0.29 -0.45,0.29zM358.87,96.54401c-0.33,-0.82 -0.66,-1.63 -0.99,-2.44c-0.33,-0.81 -0.67,-1.62 -1,-2.44c-0.34,0.82 -0.68,1.63 -1.03,2.44c-0.35,0.81 -0.69,1.62 -1.04,2.44zM375.52,85.70401c1.21,0 2.3,0.2 3.28,0.59c0.97,0.39 1.75,1 2.32,1.83c0.57,0.83 0.86,1.89 0.86,3.2c0,1.05 -0.2,2 -0.61,2.85c-0.41,0.85 -1.06,1.55 -1.95,2.12c-0.06,0.03 -0.09,0.07 -0.09,0.12c0,0.03 0.11,0.23 0.33,0.58c0.21,0.35 0.48,0.78 0.81,1.29c0.33,0.51 0.67,1.03 1.02,1.56c0.35,0.53 0.65,1 0.91,1.41c0.26,0.41 0.43,0.67 0.5,0.78c0.04,0.07 0.08,0.14 0.12,0.21c0.04,0.08 0.06,0.16 0.06,0.25c0,0.15 -0.08,0.24 -0.23,0.27c-0.15,0.03 -0.27,0.05 -0.37,0.05h-2.43c-0.16,0 -0.3,-0.07 -0.41,-0.22c-0.25,-0.33 -0.49,-0.67 -0.71,-1.03c-0.22,-0.36 -0.44,-0.71 -0.67,-1.06c-0.36,-0.55 -0.72,-1.1 -1.09,-1.65c-0.37,-0.55 -0.72,-1.11 -1.07,-1.67c-0.03,-0.05 -0.08,-0.08 -0.14,-0.08h-2.18c-0.1,0 -0.15,0.05 -0.15,0.14c0,0.57 0,1.13 0,1.69c-0.01,0.57 -0.01,1.13 -0.02,1.69c0,0.24 0.01,0.53 0.02,0.87c0.01,0.33 0,0.61 -0.03,0.83c-0.03,0.17 -0.07,0.29 -0.13,0.37c-0.06,0.08 -0.19,0.12 -0.38,0.12h-2.11c-0.33,0 -0.5,-0.17 -0.5,-0.51c0,-0.44 0.01,-0.88 0.03,-1.33c0.01,-0.44 0.02,-0.88 0.03,-1.33c0.03,-1.86 0.04,-3.72 0.04,-5.58c0,-1.77 -0.01,-3.54 -0.04,-5.32c-0.01,-0.43 -0.02,-0.85 -0.03,-1.27c-0.01,-0.42 -0.02,-0.84 -0.02,-1.26c0,-0.34 0.17,-0.51 0.51,-0.51zM376.1,94.17401c0.81,0 1.46,-0.25 1.96,-0.76c0.51,-0.51 0.76,-1.17 0.76,-1.98c0,-0.83 -0.24,-1.51 -0.71,-2.02c-0.47,-0.51 -1.13,-0.77 -1.98,-0.77h-2.51c0.01,0.92 0.01,1.84 0.01,2.76c0,0.93 0,1.85 0,2.77zM399.42,98.96401c0.11,0 0.2,0.04 0.26,0.12c0.06,0.08 0.11,0.16 0.16,0.25c0.05,0.08 0.15,0.27 0.3,0.57c0.15,0.29 0.28,0.59 0.41,0.88c0.13,0.29 0.2,0.46 0.2,0.53c0,0.12 -0.07,0.24 -0.21,0.35c-0.58,0.44 -1.3,0.77 -2.16,1c-0.87,0.22 -1.66,0.33 -2.38,0.33c-1.71,0 -3.18,-0.39 -4.4,-1.16c-1.23,-0.77 -2.17,-1.82 -2.82,-3.13c-0.66,-1.32 -0.99,-2.8 -0.99,-4.45c0,-1.18 0.17,-2.3 0.52,-3.35c0.35,-1.05 0.85,-1.98 1.52,-2.79c0.67,-0.81 1.49,-1.45 2.46,-1.91c0.97,-0.46 2.09,-0.69 3.34,-0.69c0.74,0 1.53,0.1 2.37,0.31c0.84,0.2 1.57,0.5 2.18,0.91c0.17,0.11 0.25,0.23 0.25,0.37c0,0.04 -0.04,0.16 -0.12,0.35c-0.07,0.2 -0.16,0.42 -0.27,0.67c-0.11,0.25 -0.21,0.47 -0.3,0.68c-0.09,0.2 -0.16,0.33 -0.19,0.4c-0.04,0.08 -0.09,0.16 -0.15,0.25c-0.06,0.09 -0.15,0.13 -0.27,0.13c-0.07,0 -0.13,-0.02 -0.2,-0.06c-0.06,-0.03 -0.12,-0.07 -0.19,-0.1c-0.46,-0.29 -0.93,-0.53 -1.41,-0.7c-0.47,-0.18 -0.99,-0.27 -1.55,-0.27c-0.76,0 -1.44,0.17 -2.03,0.51c-0.59,0.34 -1.1,0.79 -1.51,1.35c-0.41,0.56 -0.72,1.18 -0.93,1.87c-0.21,0.68 -0.32,1.36 -0.32,2.05c0,1.03 0.18,1.99 0.55,2.87c0.36,0.89 0.91,1.6 1.65,2.14c0.74,0.54 1.67,0.81 2.8,0.81c0.57,0 1.09,-0.08 1.58,-0.23c0.48,-0.15 0.96,-0.38 1.43,-0.68c0.07,-0.05 0.13,-0.09 0.2,-0.12c0.06,-0.04 0.13,-0.06 0.22,-0.06zM421.13,85.70401c0.33,0 0.5,0.17 0.5,0.51c0,0.41 -0.01,0.83 -0.02,1.24c-0.01,0.42 -0.03,0.84 -0.04,1.25c-0.01,0.87 -0.02,1.74 -0.03,2.62c-0.01,0.88 -0.01,1.76 -0.01,2.63c0,0.93 0,1.87 0.01,2.82c0.01,0.94 0.02,1.88 0.03,2.83c0.02,0.45 0.04,0.9 0.05,1.35c0.02,0.45 0.03,0.9 0.03,1.35c0,0.34 -0.17,0.51 -0.5,0.51h-2.1c-0.18,0 -0.3,-0.04 -0.37,-0.12c-0.07,-0.08 -0.11,-0.2 -0.13,-0.37c-0.02,-0.15 -0.03,-0.35 -0.03,-0.61c-0.01,-0.27 -0.01,-0.54 0,-0.82c0,-0.27 0,-0.5 0,-0.67c-0.02,-1.47 -0.03,-2.93 -0.03,-4.39c0,-0.1 -0.05,-0.15 -0.16,-0.15h-8.21c-0.09,0 -0.14,0.05 -0.14,0.15c0,1.46 -0.01,2.92 -0.04,4.39c0,0.17 0,0.4 0.01,0.67c0,0.28 0,0.55 0,0.82c0,0.26 -0.01,0.46 -0.03,0.61c-0.03,0.17 -0.07,0.29 -0.13,0.37c-0.06,0.08 -0.18,0.12 -0.37,0.12h-2.12c-0.33,0 -0.5,-0.17 -0.5,-0.51c0,-0.45 0.01,-0.9 0.03,-1.35c0.02,-0.45 0.04,-0.9 0.05,-1.35c0.01,-0.95 0.02,-1.89 0.03,-2.83c0.01,-0.95 0.02,-1.89 0.02,-2.82c0,-0.87 -0.01,-1.75 -0.02,-2.63c-0.01,-0.88 -0.02,-1.75 -0.03,-2.62c-0.01,-0.41 -0.03,-0.83 -0.04,-1.25c-0.01,-0.41 -0.02,-0.83 -0.02,-1.24c0,-0.34 0.17,-0.51 0.5,-0.51h2.11c0.19,0 0.31,0.04 0.37,0.12c0.06,0.08 0.1,0.2 0.13,0.36c0.03,0.22 0.04,0.56 0.03,1.01c-0.01,0.45 -0.02,0.81 -0.01,1.07c0.01,0.73 0.02,1.45 0.02,2.18c0.01,0.73 0.01,1.45 0.01,2.18c0,0.09 0.05,0.14 0.16,0.14h8.19c0.11,0 0.16,-0.05 0.16,-0.14c0,-0.73 0,-1.45 0,-2.18c0.01,-0.73 0.01,-1.45 0.02,-2.18c0.01,-0.26 0,-0.62 -0.01,-1.07c-0.01,-0.45 0,-0.79 0.03,-1.01c0.03,-0.16 0.07,-0.28 0.14,-0.36c0.07,-0.08 0.19,-0.12 0.36,-0.12z" stroke-linecap="round"/>
</g>
</g>
</g>
<g transform="matrix(1 0 0 1 0 -188.623134)" id="0db9d611-1198-4c92-a9da-4be233a2de49">

</g>
<g transform="matrix(1 0 0 1 0 -188.623134)" id="8ba457f2-aa8b-4bf7-96b7-d2cd71a5483a">

</g>

  </svg>